<svg xmlns="http://www.w3.org/2000/svg" xmlns:xlink="http://www.w3.org/1999/xlink" width="83" height="99" viewBox="0 0 83 99"><defs><path id="cxhha" d="M107.65 591.1a19.98 19.98 0 0 1 4.51 12.64c0 11.19-9.21 20.26-20.58 20.26C80.21 624 71 614.93 71 603.74c0-11.2 9.21-20.27 20.58-20.27 1.3 0 2.55.13 3.78.36l.66 5.36c-1.4-.41-2.9-.64-4.44-.64a15.3 15.3 0 0 0-15.43 15.19 15.3 15.3 0 0 0 15.43 15.19 15.3 15.3 0 0 0 15.43-15.2c0-4.37-1.9-8.31-4.91-11.08zm2.95-2.41l4.02-6.32-3.05-2.08 3.23-2.12-.16 4.17 24.25-38.07 3.11 2.03-30.76 42.8zm-14.44-9.55L127.84 537l2.94 2.26-28.46 33.77 3.08-1.28-.89 3.73-2.7-1.85-.6.72 3.07 2.1-2.1 8.88-.08.05-1.11-10.77-4.22 5zm9.3-3.5l.9-3.74 3.12 2.13.07.61zm5.27 5.2l3.34 2.29L103 586l.03-.1zm-4.74-4.36l3.67-.9.44 3.7zm3.88 3.79l-6.52 4.29 1.78-7.53zm1.21-.8l-.48-4.11.6-.15 3.13 2.13z"/><path id="cxhhb" d="M92 573a30 30 0 1 1 0 60 30 30 0 0 1 0-60z"/><clipPath id="cxhhc"><use fill="#fff" xlink:href="#cxhha"/></clipPath></defs><g><g transform="translate(-61 -535)"><g><use fill="#fff" xlink:href="#cxhhb"/></g><g><use fill="#c88e37" xlink:href="#cxhha"/><use fill="#fff" fill-opacity="0" stroke="#c88e37" stroke-miterlimit="50" stroke-width="2" clip-path="url(&quot;#cxhhc&quot;)" xlink:href="#cxhha"/></g></g></g></svg>