<svg xmlns="http://www.w3.org/2000/svg" xmlns:xlink="http://www.w3.org/1999/xlink" width="62" height="71" viewBox="0 0 62 71"><defs><path id="a0q7a" d="M224.82 576.58c-.6.93-1.27 1.8-2.02 2.62a5.55 5.55 0 0 0-.86-.07h-.1a2.07 2.07 0 0 1 2.98-2.55zm32.49 1.77c0 .28-.06.54-.16.78h-.1c-.29 0-.57.02-.85.07a18.84 18.84 0 0 1-2.02-2.62c.3-.2.67-.3 1.06-.3 1.14 0 2.07.93 2.07 2.07zm6.69 10.7v6.35c0 8.6-3.59 16.92-9.85 22.8a21.43 21.43 0 0 1-29.3 0 31.41 31.41 0 0 1-9.85-22.8v-6.35c0-.71.45-1.34 1.12-1.56l.94-.35a5.52 5.52 0 0 0 3.2 2.74 5.5 5.5 0 0 0 4.54 8.6h.08a5.5 5.5 0 0 0 7.1 6.13 7.67 7.67 0 0 0 7.52 6.23 7.67 7.67 0 0 0 7.51-6.24 5.5 5.5 0 0 0 7.1-6.13h.1a5.5 5.5 0 0 0 4.53-8.59 5.52 5.52 0 0 0 3.2-2.74l.94.35c.67.22 1.12.85 1.12 1.56zm-12.43-4.41c0 1.14.35 2.2.94 3.08a5.52 5.52 0 0 0-3.72 6.14h-.08a5.49 5.49 0 0 0-4.87 2.97 7.58 7.58 0 0 0-8.68 0 5.49 5.49 0 0 0-4.87-2.98h-.08a5.52 5.52 0 0 0-3.72-6.13 5.5 5.5 0 0 0-.6-6.9l.2-.23a22.5 22.5 0 0 0 5.14-13.91v-.03c0-.91.74-1.65 1.65-1.65h13.24c.9 0 1.64.74 1.64 1.65v.03a22.5 22.5 0 0 0 5.14 13.9l.2.25a5.5 5.5 0 0 0-1.53 3.8zm-7.84 18.51c0 2.35-1.9 4.25-4.23 4.25a4.24 4.24 0 0 1 0-8.5c2.33 0 4.23 1.91 4.23 4.25zm-11.38-3.79c0 1.15-.92 2.08-2.06 2.08a2.07 2.07 0 0 1 0-4.15c1.14 0 2.06.93 2.06 2.07zm-5.49-6.4c0 1.15-.92 2.08-2.06 2.08a2.07 2.07 0 0 1 0-4.15c1.14 0 2.06.93 2.06 2.07zm-2.85-8.32a2.07 2.07 0 1 1-2.06-2.07c1.13 0 2.06.93 2.06 2.07zm26.76 14.72c0 1.15-.92 2.08-2.06 2.08a2.07 2.07 0 0 1 0-4.15c1.14 0 2.06.93 2.06 2.07zm5.5-6.4a2.07 2.07 0 1 1-2.06-2.07c1.13 0 2.05.93 2.05 2.07zm2.85-8.32c0 1.14-.93 2.07-2.06 2.07a2.07 2.07 0 0 1 0-4.14c1.13 0 2.06.93 2.06 2.07z"/><path id="a0q7b" d="M239 573a30 30 0 1 1 0 60 30 30 0 0 1 0-60z"/><clipPath id="a0q7c"><use fill="#fff" xlink:href="#a0q7a"/></clipPath></defs><g><g transform="translate(-208 -563)"><g><use fill="#fff" xlink:href="#a0q7b"/></g><g><use fill="#c88e37" xlink:href="#a0q7a"/><use fill="#fff" fill-opacity="0" stroke="#c88e37" stroke-miterlimit="50" stroke-width="2" clip-path="url(&quot;#a0q7c&quot;)" xlink:href="#a0q7a"/></g></g></g></svg>