<svg xmlns="http://www.w3.org/2000/svg" xmlns:xlink="http://www.w3.org/1999/xlink" width="64" height="84" viewBox="0 0 64 84"><defs><path id="d8tsa" d="M394.6 555.08v10.12c0 1.15-.94 2.08-2.1 2.08a2.1 2.1 0 0 1-2.1-2.08v-10.12a2.1 2.1 0 0 1 2.1-2.08c1.16 0 2.1.93 2.1 2.08zm-13.23 11.6c-.83.8-2.16.8-2.98 0l-4.2-4.17a2.06 2.06 0 0 1 0-2.94 2.12 2.12 0 0 1 2.97 0l4.2 4.16c.83.81.83 2.13 0 2.94zm29.44-4.17l-4.2 4.16c-.82.82-2.16.82-2.98 0a2.06 2.06 0 0 1 0-2.94l4.21-4.16a2.12 2.12 0 0 1 2.97 0c.83.81.83 2.13 0 2.94zm-2.74 8.93l-3.98 12.66-6.23-12.66zm-6.53 20.8l-9.04 30.61-9.04-30.6zm-23.73-4.16H362l11.16-14.7zm23.7 0h-18.03l7.73-16.64h2.58zm-14.38-16.64l-6.22 12.66-3.98-12.66zM423 588.08h-15.8l4.64-14.7zM388.58 624l-26.48-31.76h17.02zm34.32-31.76L396.42 624l9.46-31.76z"/><path id="d8tsb" d="M392.23 573.06a30.05 30.05 0 1 1-.01 60.11 30.05 30.05 0 0 1 .01-60.1z"/><clipPath id="d8tsc"><use fill="#fff" xlink:href="#d8tsa"/></clipPath></defs><g><g transform="translate(-360 -551)"><g><use fill="#fff" xlink:href="#d8tsb"/></g><g><use fill="#c88e37" xlink:href="#d8tsa"/><use fill="#fff" fill-opacity="0" stroke="#c88e37" stroke-miterlimit="50" stroke-width="2" clip-path="url(&quot;#d8tsc&quot;)" xlink:href="#d8tsa"/></g></g></g></svg>