<svg xmlns="http://www.w3.org/2000/svg" xmlns:xlink="http://www.w3.org/1999/xlink" width="75" height="77" viewBox="0 0 75 77"><defs><path id="qw98a" d="M571.91 563.2a30.98 30.98 0 0 1 0-1.74c.03-.53.05-.89-.24-1.2a.86.86 0 0 0-.62-.26c-.48 0-.69.26-1.36 1.12-.54.67-1.43 1.8-2.88 3.44a36.14 36.14 0 0 1-6.82 5.9l-.22.15-.1.26a307.2 307.2 0 0 1-1.82 5.17c-.13-.78-.3-1.7-.54-2.68l-.24-1.06-.94.53c-2.16 1.2-4.36 2.27-6.5 3.3-2.06 1-4 1.95-5.9 3l-.28.15-.1.3c-.35 1-1.04 2.98-1.6 4.53a52 52 0 0 0-.44-2.21l-.26-1.2-1 .7-.6.43-.47.35c-5.55 3.93-8.96 7.62-11.12 10.87-6.92 9.13-12.39 20.91-12.63 21.42a2.49 2.49 0 0 0 1.18 3.3 2.42 2.42 0 0 0 3.25-1.2c.04-.08 2.47-5.31 6.04-11.37.84.28 2.05.47 3.77.47.5 0 1.05-.01 1.62-.05 2.33-.13 7.25-1 12.54-2.23l1.3-.3-.85-1.03-1-1.23c1.2.45 2.76 1 4.5 1.43l.21.05.21-.06a48.24 48.24 0 0 0 12.84-5.72l1.27-.84-1.4-.6c-.73-.33-2.32-1.02-3.63-1.63 2.38-.26 6.01-.77 9.21-2.24l.21-.1.13-.19a30.05 30.05 0 0 0 3.96-9.88l.23-1-1.01-.01-2.65-.04a42.19 42.19 0 0 0 3.84-2.42l.28-.2.05-.35c.85-5.94.66-11.46.58-13.82z"/><path id="qw98b" d="M530.23 573.06a30.05 30.05 0 1 1-.01 60.11 30.05 30.05 0 0 1 .01-60.1z"/><clipPath id="qw98c"><use fill="#fff" xlink:href="#qw98a"/></clipPath></defs><g><g transform="translate(-499 -558)"><g><use fill="#fff" xlink:href="#qw98b"/></g><g><use fill="#c88e37" xlink:href="#qw98a"/><use fill="#fff" fill-opacity="0" stroke="#c88e37" stroke-miterlimit="50" stroke-width="2" clip-path="url(&quot;#qw98c&quot;)" xlink:href="#qw98a"/></g></g></g></svg>