<svg xmlns="http://www.w3.org/2000/svg" xmlns:xlink="http://www.w3.org/1999/xlink" width="72" height="73" viewBox="0 0 72 73"><defs><path id="euh1a" d="M690.03 580.53a6.43 6.43 0 0 1 12.86 0 6.43 6.43 0 0 1-12.86 0zm2.22 0a4.21 4.21 0 0 0 8.43 0 4.21 4.21 0 0 0-8.43 0zM681 587.96l3.23 3.56.03.03a7.7 7.7 0 0 1-.88 10.73c-3.18 2.86-7.99 2.72-10.73-.3l-2.49-2.75-1.42 1.28 4.72 5.2a1.1 1.1 0 0 1-.08 1.57 1.1 1.1 0 0 1-1.56-.07l-4.72-5.2-4.28 3.84a1.1 1.1 0 0 1-1.57-.07 1.1 1.1 0 0 1 .07-1.56l4.29-3.85-1.02-1.14a1.1 1.1 0 0 1 .07-1.56 1.1 1.1 0 0 1 1.57.07l1.02 1.14 1.42-1.28-1.02-1.14a1.1 1.1 0 0 1 .07-1.56 1.1 1.1 0 0 1 1.57.07l1.02 1.14 9.12-8.23a1.1 1.1 0 0 1 1.57.08zm-.89 2.31l-8.3 7.47 2.48 2.75c1.92 2.12 5.33 2.18 7.6.14a5.48 5.48 0 0 0 .69-7.63zM709 569.1v27.1c0 .32-.15.63-.38.84l-38.23 32.7c-.2.17-.47.25-.73.25-.28 0-.56-.1-.78-.3l-27.55-27a1.09 1.09 0 0 1-.33-.82c.02-.3.15-.6.39-.8l38.22-32.8c.2-.18.46-.27.73-.27h27.55c.6 0 1.11.5 1.11 1.1zm-2.2 1.1h-26.03l-37.02 31.76 25.97 25.43 37.08-31.7zm1.93 33.28c.4.45.34 1.16-.11 1.56l-38.23 32.7c-.2.17-.47.26-.73.26-.28 0-.56-.1-.78-.33l-27.55-27.44a1.11 1.11 0 0 1 0-1.56 1.12 1.12 0 0 1 1.56 0l26.83 26.72 37.45-32.03c.45-.4 1.16-.34 1.56.12z"/><path id="euh1b" d="M675.23 573.06a30.05 30.05 0 1 1-.01 60.11 30.05 30.05 0 0 1 .01-60.1z"/><clipPath id="euh1c"><use fill="#fff" xlink:href="#euh1a"/></clipPath></defs><g><g transform="translate(-639 -566)"><g><use fill="#fff" xlink:href="#euh1b"/></g><g><use fill="#c88e37" xlink:href="#euh1a"/><use fill="#fff" fill-opacity="0" stroke="#c88e37" stroke-miterlimit="50" stroke-width="576" clip-path="url(&quot;#euh1c&quot;)" xlink:href="#euh1a"/></g></g></g></svg>